<svg width="18" height="18" viewBox="0 0 18 18" fill="none" xmlns="http://www.w3.org/2000/svg">
<path d="M7.4 8.15904C7.4 8.62799 7.56857 9.07774 7.86863 9.40934C8.16868 9.74094 8.57565 9.92723 8.99999 9.92723C9.42434 9.92723 9.83131 9.74094 10.1314 9.40934C10.4314 9.07774 10.6 8.62799 10.6 8.15904C10.6 7.22113 10.2629 6.32164 9.66274 5.65844C9.06262 4.99524 8.24869 4.62266 7.4 4.62266C6.5513 4.62266 5.73737 4.99524 5.13726 5.65844C4.53714 6.32164 4.2 7.22113 4.2 8.15904C4.2 9.5659 4.70571 10.9151 5.60588 11.9099C6.50606 12.9047 7.72696 13.4636 8.99999 13.4636C10.273 13.4636 11.4939 12.9047 12.3941 11.9099C13.2943 10.9151 13.8 9.5659 13.8 8.15904C13.8 6.28323 13.1257 4.48424 11.9255 3.15784C10.7252 1.83144 9.09738 1.08627 7.4 1.08627C5.70261 1.08627 4.07475 1.83144 2.87452 3.15784C1.67428 4.48424 1 6.28323 1 8.15904C1 10.5038 1.84285 12.7525 3.34314 14.4105C4.84344 16.0685 6.87826 17 8.99999 17C11.1217 17 13.1566 16.0685 14.6568 14.4105C16.1571 12.7525 17 10.5038 17 8.15904C17.0029 5.85473 16.323 3.61275 15.064 1.77587C14.9414 1.57608 14.7831 1.40615 14.5989 1.27653C14.4146 1.14692 14.2083 1.06037 13.9926 1.02222C13.7769 0.984074 13.5564 0.99513 13.3448 1.05471C13.1331 1.11429 12.9347 1.22113 12.7619 1.36866C12.589 1.51618 12.4453 1.70126 12.3395 1.9125C12.2338 2.12373 12.1684 2.35665 12.1472 2.5969C12.1261 2.83714 12.1497 3.07964 12.2165 3.30943C12.2834 3.53923 12.3921 3.75146 12.536 3.93306" fill="#0000CD"/>
<path d="M7.4 8.15904C7.4 8.62799 7.56857 9.07774 7.86863 9.40934C8.16868 9.74094 8.57565 9.92723 8.99999 9.92723C9.42434 9.92723 9.83131 9.74094 10.1314 9.40934C10.4314 9.07774 10.6 8.62799 10.6 8.15904C10.6 7.22113 10.2629 6.32164 9.66274 5.65844C9.06262 4.99524 8.24869 4.62266 7.4 4.62266C6.5513 4.62266 5.73737 4.99524 5.13726 5.65844C4.53714 6.32164 4.2 7.22113 4.2 8.15904C4.2 9.5659 4.70571 10.9151 5.60588 11.9099C6.50606 12.9047 7.72696 13.4636 8.99999 13.4636C10.273 13.4636 11.4939 12.9047 12.3941 11.9099C13.2943 10.9151 13.8 9.5659 13.8 8.15904C13.8 6.28323 13.1257 4.48424 11.9255 3.15784C10.7252 1.83144 9.09738 1.08627 7.4 1.08627C5.70261 1.08627 4.07475 1.83144 2.87452 3.15784C1.67428 4.48424 1 6.28323 1 8.15904C1 10.5038 1.84285 12.7525 3.34314 14.4105C4.84344 16.0685 6.87826 17 8.99999 17C11.1217 17 13.1566 16.0685 14.6568 14.4105C16.1571 12.7525 17 10.5038 17 8.15904C17.0029 5.85473 16.323 3.61275 15.064 1.77587C14.9414 1.57608 14.7831 1.40615 14.5989 1.27653C14.4146 1.14692 14.2083 1.06037 13.9926 1.02222C13.7769 0.984074 13.5564 0.99513 13.3448 1.05471C13.1331 1.11429 12.9347 1.22113 12.7619 1.36866C12.589 1.51618 12.4453 1.70126 12.3395 1.9125C12.2338 2.12373 12.1684 2.35665 12.1472 2.5969C12.1261 2.83714 12.1497 3.07964 12.2165 3.30943C12.2834 3.53923 12.3921 3.75146 12.536 3.93306" stroke="white" stroke-linecap="round" stroke-linejoin="round"/>
</svg>
